<?xml version="1.0" encoding="UTF-8"?>
<svg xmlns="http://www.w3.org/2000/svg" xmlns:xlink="http://www.w3.org/1999/xlink" viewBox="0 0 48 48" width="48px" height="48px">
<g id="surface13362221">
<path style=" stroke:none;fill-rule:nonzero;fill:rgb(100%,100%,100%);fill-opacity:1;" d="M 8 8 C 5.8125 8 4 9.8125 4 12 L 4 36 C 4 38.1875 5.8125 40 8 40 L 40 40 C 42.1875 40 44 38.1875 44 36 L 44 12 C 44 9.8125 42.1875 8 40 8 Z M 8 12 L 40 12 L 40 36 L 8 36 Z M 20 16 C 18.894531 16 18 16.894531 18 18 C 18 19.105469 18.894531 20 20 20 C 21.105469 20 22 19.105469 22 18 C 22 16.894531 21.105469 16 20 16 Z M 29 22 L 22 30 L 17 25 L 11.554688 32 L 36.5 32 Z M 29 22 "/>
</g>
</svg>
