<?xml version="1.0" encoding="UTF-8"?>
<svg xmlns="http://www.w3.org/2000/svg" xmlns:xlink="http://www.w3.org/1999/xlink" viewBox="0 0 50 50" width="50px" height="50px">
<g id="surface96920073">
<path style=" stroke:none;fill-rule:nonzero;fill:rgb(76.862746%,40.784314%,7.450981%);fill-opacity:1;" d="M 3 0 L 3 50 L 39 50 L 37.300781 48 L 5 48 L 5 2 L 25 2 L 25 16 L 39 16 L 39 29 L 41 29 L 41 14.597656 L 26.402344 0 Z M 27 3.402344 L 37.597656 14 L 27 14 Z M 16.800781 24.097656 C 14.902344 24.097656 13.5 25.398438 13.5 27.398438 C 13.5 28.601562 14.300781 29.800781 15.800781 30.800781 C 16.699219 31.5 17.199219 32 17.199219 33 C 17.199219 34 16.601562 34.699219 15.5 34.699219 C 15 34.699219 14.398438 34.5 14 34.300781 L 13.699219 34.097656 L 13.300781 35.699219 L 13.402344 35.800781 C 13.800781 36.101562 14.601562 36.300781 15.5 36.300781 C 17.5 36.300781 19 34.902344 19 32.800781 C 19.101562 31.5 18.398438 30.398438 17 29.398438 C 15.898438 28.601562 15.402344 28.199219 15.402344 27.199219 C 15.402344 26.5 15.800781 25.800781 16.800781 25.800781 C 17.5 25.800781 17.898438 26 18 26.097656 L 18.300781 26.300781 L 18.699219 24.699219 L 18.597656 24.597656 C 18.300781 24.398438 17.601562 24.097656 16.800781 24.097656 Z M 24.097656 24.097656 C 21.898438 24.097656 20.5 26.398438 20.5 30.199219 C 20.5 34 21.800781 36.300781 23.902344 36.300781 C 25.199219 36.300781 27.5 35.5 27.5 30.097656 C 27.5 26.398438 26.199219 24.097656 24.097656 24.097656 Z M 9.902344 24.199219 L 9.902344 32.800781 C 9.902344 34.601562 9.300781 34.699219 8.699219 34.699219 C 8.5 34.699219 8.300781 34.699219 8.101562 34.597656 L 7.800781 34.5 L 7.601562 36.097656 L 7.800781 36.199219 C 8 36.300781 8.398438 36.300781 8.699219 36.300781 C 10.699219 36.300781 11.601562 35.199219 11.601562 32.699219 L 11.601562 24.199219 Z M 29.5 24.199219 L 29.5 36.199219 L 31.199219 36.199219 L 31.199219 28.300781 C 31.398438 29 31.699219 29.699219 32 30.5 L 34.199219 36.199219 L 35.800781 36.199219 L 35.800781 24.199219 L 34.097656 24.199219 L 34.097656 28.597656 C 34.097656 29.898438 34.097656 31 34.199219 32.199219 C 34 31.5 33.699219 30.800781 33.402344 30.199219 L 31.101562 24.199219 Z M 24 25.699219 C 25.5 25.699219 25.597656 29.097656 25.597656 30.097656 C 25.597656 33 25 34.699219 24 34.699219 C 23 34.699219 22.300781 33 22.300781 30.199219 C 22.300781 29.199219 22.398438 25.699219 24 25.699219 Z M 38 31 L 38 40 L 33 40 L 41.699219 50 L 50 40 L 45 40 L 45 31 Z M 40 33 L 43 33 L 43 42 L 46 42 L 41.699219 47 L 37 42 L 40 42 Z M 40 33 "/>
</g>
</svg>
