<?xml version="1.0" encoding="UTF-8"?>
<svg xmlns="http://www.w3.org/2000/svg" xmlns:xlink="http://www.w3.org/1999/xlink" viewBox="0 0 15 15" width="15px" height="15px">
<g id="surface86062610">
<path style=" stroke:none;fill-rule:nonzero;fill:rgb(90.588236%,29.803923%,23.529412%);fill-opacity:1;" d="M 4.332031 1 C 4.246094 1 4.15625 1.035156 4.09375 1.097656 C 4.03125 1.160156 3.996094 1.242188 3.996094 1.332031 L 2 1.332031 C 1.878906 1.332031 1.769531 1.394531 1.707031 1.5 C 1.648438 1.601562 1.648438 1.730469 1.707031 1.835938 C 1.769531 1.9375 1.878906 2 2 2 L 8 2 C 8.121094 2 8.230469 1.9375 8.292969 1.835938 C 8.351562 1.730469 8.351562 1.601562 8.292969 1.5 C 8.230469 1.394531 8.121094 1.332031 8 1.332031 L 6.003906 1.332031 C 6.003906 1.242188 5.96875 1.160156 5.90625 1.097656 C 5.84375 1.035156 5.753906 1 5.667969 1 Z M 2 2.667969 L 2 8 C 2 8.367188 2.296875 8.667969 2.667969 8.667969 L 7.332031 8.667969 C 7.703125 8.667969 8 8.367188 8 8 L 8 2.667969 Z M 4 4.332031 C 4.085938 4.332031 4.171875 4.367188 4.234375 4.429688 L 5 5.195312 L 5.765625 4.429688 C 5.894531 4.300781 6.105469 4.300781 6.234375 4.429688 C 6.367188 4.5625 6.367188 4.773438 6.234375 4.902344 L 5.472656 5.667969 L 6.234375 6.429688 C 6.367188 6.5625 6.367188 6.773438 6.234375 6.902344 C 6.171875 6.96875 6.085938 7 6 7 C 5.914062 7 5.828125 6.96875 5.765625 6.902344 L 5 6.136719 L 4.234375 6.902344 C 4.171875 6.96875 4.085938 7 4 7 C 3.914062 7 3.828125 6.96875 3.765625 6.902344 C 3.632812 6.773438 3.632812 6.5625 3.765625 6.429688 L 4.527344 5.667969 L 3.765625 4.902344 C 3.632812 4.773438 3.632812 4.5625 3.765625 4.429688 C 3.828125 4.367188 3.914062 4.332031 4 4.332031 Z M 4 4.332031 "/>
</g>
</svg>
