<?xml version="1.0" encoding="UTF-8"?>
<svg xmlns="http://www.w3.org/2000/svg" xmlns:xlink="http://www.w3.org/1999/xlink" viewBox="0 0 48 48" width="48px" height="48px">
<g id="surface17960548">
<path style=" stroke:none;fill-rule:nonzero;fill:rgb(37.254903%,3.921569%,52.941179%);fill-opacity:1;" d="M 38.65625 18.535156 L 41.097656 16.097656 C 43.632812 13.5625 43.632812 9.4375 41.097656 6.902344 C 39.871094 5.675781 38.238281 5.003906 36.5 5.003906 C 34.761719 5.003906 33.128906 5.679688 31.902344 6.902344 L 29.464844 9.34375 Z M 27.34375 11.464844 L 9.273438 29.53125 C 8.890625 29.917969 8.597656 30.394531 8.425781 30.90625 L 5.074219 41.027344 C 4.898438 41.566406 5.039062 42.160156 5.4375 42.5625 C 5.726562 42.847656 6.109375 43 6.5 43 C 6.65625 43 6.816406 42.976562 6.972656 42.925781 L 17.089844 39.574219 C 17.605469 39.402344 18.082031 39.109375 18.46875 38.722656 L 36.535156 20.65625 Z M 27.34375 11.464844 "/>
</g>
</svg>
