<?xml version="1.0" encoding="UTF-8"?>
<svg xmlns="http://www.w3.org/2000/svg" xmlns:xlink="http://www.w3.org/1999/xlink" viewBox="0 0 48 48" width="32px" height="32px">
<g id="surface39432764">
<path style=" stroke:none;fill-rule:nonzero;fill:rgb(100%,100%,100%);fill-opacity:1;" d="M 29 7 C 29 9.800781 26.800781 12 24 12 C 21.199219 12 19 9.800781 19 7 C 19 4.199219 21.199219 2 24 2 C 26.800781 2 29 4.199219 29 7 Z M 24 19 C 21.199219 19 19 21.199219 19 24 C 19 26.800781 21.199219 29 24 29 C 26.800781 29 29 26.800781 29 24 C 29 21.199219 26.800781 19 24 19 Z M 24 36 C 21.199219 36 19 38.199219 19 41 C 19 43.800781 21.199219 46 24 46 C 26.800781 46 29 43.800781 29 41 C 29 38.199219 26.800781 36 24 36 Z M 24 36 "/>
</g>
</svg>
