<svg fill="#5f0a87" xmlns="http://www.w3.org/2000/svg"  viewBox="0 0 24 24" width="48px" height="48px"><path d="M 12 2 C 9.9624113 2 8.0657639 2.6194565 6.4824219 3.6699219 L 4.9824219 2.1699219 C 4.6204219 1.8069219 4 2.0631719 4 2.5761719 L 4 6.4257812 C 4 6.7427813 4.2572187 7 4.5742188 7 L 8.4238281 7 C 8.9368281 7 9.1930781 6.3795781 8.8300781 6.0175781 L 7.9296875 5.1171875 C 9.121675 4.410121 10.508904 4 12 4 C 16.430666 4 20 7.5693339 20 12 C 20 16.430666 16.430666 20 12 20 C 7.5693339 20 4 16.430666 4 12 A 1.0001 1.0001 0 1 0 2 12 C 2 17.511334 6.4886661 22 12 22 C 17.511334 22 22 17.511334 22 12 C 22 6.4886661 17.511334 2 12 2 z"/></svg>