<?xml version="1.0" encoding="UTF-8"?>
<svg xmlns="http://www.w3.org/2000/svg" xmlns:xlink="http://www.w3.org/1999/xlink" viewBox="0 0 48 48" width="48px" height="48px">
<g id="surface56707179">
<path style=" stroke:none;fill-rule:nonzero;fill:rgb(100%,100%,100%);fill-opacity:1;" d="M 8 8 C 5.789062 8 4 9.789062 4 12 L 4 15.464844 L 8 17.972656 L 24 28 L 40 18.039062 L 42 16.792969 L 44 15.550781 L 44 12 C 44 9.789062 42.210938 8 40 8 Z M 8 12 L 40 12 L 40 13.539062 L 24 23.496094 L 8 13.46875 Z M 4 20.183594 L 4 36 C 4 38.210938 5.789062 40 8 40 L 40 40 C 42.210938 40 44 38.210938 44 36 L 44 20.261719 L 40 22.75 L 40 36 L 8 36 L 8 22.691406 Z M 4 20.183594 "/>
</g>
</svg>
