<?xml version="1.0" encoding="UTF-8"?>
<svg xmlns="http://www.w3.org/2000/svg" xmlns:xlink="http://www.w3.org/1999/xlink" viewBox="0 0 24 24" width="24px" height="24px">
<g id="surface13316732">
<path style=" stroke:none;fill-rule:nonzero;fill:rgb(100%,100%,100%);fill-opacity:1;" d="M 3 4.5 C 2.171875 4.5 1.5 5.171875 1.5 6 C 1.5 6.828125 2.171875 7.5 3 7.5 C 3.828125 7.5 4.5 6.828125 4.5 6 C 4.5 5.171875 3.828125 4.5 3 4.5 Z M 7 5 L 7 7 L 22 7 L 22 5 Z M 3 10.5 C 2.171875 10.5 1.5 11.171875 1.5 12 C 1.5 12.828125 2.171875 13.5 3 13.5 C 3.828125 13.5 4.5 12.828125 4.5 12 C 4.5 11.171875 3.828125 10.5 3 10.5 Z M 7 11 L 7 13 L 22 13 L 22 11 Z M 3 16.5 C 2.171875 16.5 1.5 17.171875 1.5 18 C 1.5 18.828125 2.171875 19.5 3 19.5 C 3.828125 19.5 4.5 18.828125 4.5 18 C 4.5 17.171875 3.828125 16.5 3 16.5 Z M 7 17 L 7 19 L 22 19 L 22 17 Z M 7 17 "/>
</g>
</svg>
