<?xml version="1.0" standalone="no"?>
<!DOCTYPE svg PUBLIC "-//W3C//DTD SVG 20010904//EN"
 "http://www.w3.org/TR/2001/REC-SVG-20010904/DTD/svg10.dtd">
<svg version="1.0" xmlns="http://www.w3.org/2000/svg"
 width="1048.000000pt" height="1009.000000pt" viewBox="0 0 1048.000000 1009.000000"
 preserveAspectRatio="xMidYMid meet">
<metadata>
Created by potrace 1.16, written by Peter Selinger 2001-2019
</metadata>
<g transform="translate(0.000000,1009.000000) scale(0.100000,-0.100000)"
fill="#6a0dad" stroke="none">
<path d="M5865 10065 c-156 -25 -353 -88 -394 -126 -53 -50 -5 -77 210 -119
473 -93 850 -237 1119 -428 120 -85 281 -244 350 -346 114 -171 164 -320 164
-496 1 -146 -24 -229 -102 -344 -138 -201 -156 -335 -65 -478 l25 -41 -85 -86
c-68 -69 -1808 -1870 -1908 -1975 l-27 -29 -459 433 c-252 239 -492 466 -534
506 l-76 72 23 69 c35 106 71 256 91 378 24 152 24 488 0 640 -59 371 -202
711 -418 997 -77 101 -258 289 -357 370 -304 249 -679 414 -1082 474 -146 22
-485 25 -543 5 -119 -41 -172 -181 -107 -286 11 -17 260 -270 554 -562 l534
-531 -134 -528 c-73 -290 -137 -530 -141 -534 -4 -4 -252 -73 -550 -154 l-543
-148 -545 538 c-335 330 -560 546 -583 556 -102 48 -233 -14 -262 -122 -20
-74 -8 -478 19 -616 119 -628 491 -1164 1033 -1486 533 -317 1198 -393 1789
-205 l106 34 448 -465 448 -464 -24 -23 c-13 -12 -793 -704 -1734 -1537 -1555
-1377 -1713 -1521 -1748 -1579 -58 -99 -79 -176 -84 -309 -6 -138 10 -216 63
-322 32 -66 66 -103 337 -374 l302 -302 95 -45 c54 -26 129 -53 172 -61 203
-41 435 6 550 112 23 22 720 799 1548 1726 828 926 1508 1684 1512 1683 4 -1
702 -722 1550 -1602 849 -880 1568 -1622 1597 -1648 131 -117 319 -217 490
-260 71 -18 114 -21 241 -21 139 1 164 3 244 28 166 50 297 129 419 252 123
126 199 257 238 413 19 73 21 104 16 225 -6 170 -25 244 -102 402 -61 126
-144 243 -248 349 -40 40 -821 781 -1737 1645 -916 865 -1678 1585 -1693 1600
l-28 27 956 989 c527 544 976 1008 999 1031 l41 43 50 -36 c164 -119 342 -151
500 -89 93 36 103 38 158 25 124 -28 367 -171 645 -379 l123 -92 -59 -63 c-84
-90 -106 -141 -107 -241 0 -68 4 -89 28 -137 34 -70 102 -131 168 -153 74 -25
190 -18 252 15 31 17 177 155 438 415 445 442 444 441 444 575 0 62 -6 86 -28
132 -55 111 -152 172 -277 171 -106 0 -157 -24 -255 -123 l-78 -79 -17 22
c-52 66 -164 244 -192 302 -29 63 -31 76 -29 160 2 75 -3 106 -25 175 -54 175
-201 425 -412 704 -121 159 -243 290 -447 476 -801 732 -1507 1136 -2210 1266
-126 23 -517 29 -640 9z m2956 -8742 c80 -39 150 -111 187 -191 24 -50 27 -69
27 -157 0 -90 -3 -106 -29 -160 -40 -80 -111 -149 -194 -188 -60 -29 -77 -32
-157 -32 -81 0 -97 3 -158 32 -82 39 -154 110 -194 190 -25 52 -28 68 -28 158
0 87 3 107 27 157 47 100 137 180 241 214 25 8 76 13 127 11 74 -2 95 -7 151
-34z"/>
</g>
</svg>
