<?xml version="1.0" encoding="UTF-8"?>
<svg xmlns="http://www.w3.org/2000/svg" xmlns:xlink="http://www.w3.org/1999/xlink" viewBox="0 0 40 40" width="40px" height="40px">
<g id="surface10674160">
<path style=" stroke:none;fill-rule:nonzero;fill:rgb(100%,100%,100%);fill-opacity:1;" d="M 20.117188 36.714844 C 10.949219 36.714844 3.515625 29.285156 3.515625 20.117188 C 3.515625 10.949219 10.949219 3.515625 20.117188 3.515625 C 29.285156 3.515625 36.714844 10.949219 36.714844 20.117188 C 36.714844 29.285156 29.285156 36.714844 20.117188 36.714844 Z M 20.117188 36.714844 "/>
<path style=" stroke:none;fill-rule:nonzero;fill:rgb(10.196079%,73.725492%,61.176473%);fill-opacity:1;" d="M 20 1.667969 C 9.875 1.667969 1.667969 9.875 1.667969 20 C 1.667969 30.125 9.875 38.332031 20 38.332031 C 30.125 38.332031 38.332031 30.125 38.332031 20 C 38.332031 9.875 30.125 1.667969 20 1.667969 Z M 27.332031 21.832031 L 21.832031 21.832031 L 21.832031 27.332031 C 21.832031 28.34375 21.011719 29.167969 20 29.167969 C 18.988281 29.167969 18.167969 28.34375 18.167969 27.332031 L 18.167969 21.832031 L 12.667969 21.832031 C 11.65625 21.832031 10.832031 21.011719 10.832031 20 C 10.832031 18.988281 11.65625 18.167969 12.667969 18.167969 L 18.167969 18.167969 L 18.167969 12.667969 C 18.167969 11.65625 18.988281 10.832031 20 10.832031 C 21.011719 10.832031 21.832031 11.65625 21.832031 12.667969 L 21.832031 18.167969 L 27.332031 18.167969 C 28.34375 18.167969 29.167969 18.988281 29.167969 20 C 29.167969 21.011719 28.34375 21.832031 27.332031 21.832031 Z M 27.332031 21.832031 "/>
</g>
</svg>
