<?xml version="1.0" encoding="UTF-8"?>
<svg xmlns="http://www.w3.org/2000/svg" xmlns:xlink="http://www.w3.org/1999/xlink" viewBox="0 0 48 48" width="48px" height="48px">
<g id="surface56413658">
<path style=" stroke:none;fill-rule:nonzero;fill:rgb(100%,100%,100%);fill-opacity:1;" d="M 23.992188 4.996094 C 23.722656 4.992188 23.453125 5.042969 23.203125 5.144531 C 17.378906 5.546875 12.621094 10.015625 12.042969 15.800781 C 11.960938 16.515625 12.273438 17.21875 12.855469 17.640625 C 13.441406 18.0625 14.203125 18.140625 14.859375 17.839844 C 15.515625 17.542969 15.957031 16.914062 16.023438 16.199219 C 16.425781 12.160156 19.828125 8.996094 23.992188 8.996094 C 28.429688 8.996094 32.003906 12.570312 32.003906 17 C 32.003906 20.765625 30.515625 21.753906 28.195312 23.542969 C 25.875 25.335938 22.664062 27.785156 22.015625 32.738281 C 21.898438 33.460938 22.183594 34.1875 22.757812 34.640625 C 23.335938 35.089844 24.109375 35.191406 24.78125 34.902344 C 25.453125 34.613281 25.914062 33.984375 25.984375 33.253906 C 26.449219 29.683594 28.238281 28.570312 30.640625 26.710938 C 33.042969 24.851562 36.003906 22.105469 36.003906 17 C 36.003906 10.691406 31.019531 5.613281 24.816406 5.164062 C 24.558594 5.050781 24.277344 4.992188 23.992188 4.996094 Z M 24 40.003906 C 22.898438 40.003906 22.003906 40.898438 22.003906 42 C 22.003906 43.101562 22.898438 43.996094 24 43.996094 C 25.101562 43.996094 25.996094 43.101562 25.996094 42 C 25.996094 40.898438 25.101562 40.003906 24 40.003906 Z M 24 40.003906 "/>
</g>
</svg>
